PathFileType	4	(X/Y/Z)	c:/Users/goper/Files/vsCode/490R/osim_files/A04/A04_Static02.trc
DataRate	CameraRate	NumFrames	NumMarkers	Units                	OrigDataRate	OrigDataStartFrame	OrigNumFrames
120.00	120.00	10	36	mm	120.0	749	855
                Frame#	Time	LPSIS			LASIS			LTH1			LTH2			LTH3			LTH4			LLFE			LMFE			LSH1			LSH2			LSH3			LSH4			LLMAL			LMMAL			LCAL			LMTP5			LTOE			LMTP1			RPSIS			RASIS			RTH1			RTH2			RTH3			RTH4			RLFE			RMFE			RSH1			RSH2			RSH3			RSH4			RLMAL			RMMAL			RCAL			RMTP1			RTOE			RMTP5		
		X1	Y1	Z1	X2	Y2	Z2	X3	Y3	Z3	X4	Y4	Z4	X5	Y5	Z5	X6	Y6	Z6	X7	Y7	Z7	X8	Y8	Z8	X9	Y9	Z9	X10	Y10	Z10	X11	Y11	Z11	X12	Y12	Z12	X13	Y13	Z13	X14	Y14	Z14	X15	Y15	Z15	X16	Y16	Z16	X17	Y17	Z17	X18	Y18	Z18	X19	Y19	Z19	X20	Y20	Z20	X21	Y21	Z21	X22	Y22	Z22	X23	Y23	Z23	X24	Y24	Z24	X25	Y25	Z25	X26	Y26	Z26	X27	Y27	Z27	X28	Y28	Z28	X29	Y29	Z29	X30	Y30	Z30	X31	Y31	Z31	X32	Y32	Z32	X33	Y33	Z33	X34	Y34	Z34	X35	Y35	Z35	X36	Y36	Z36

749	6.23333	-257.39111	1050.98584	371.80347	-36.99226	1015.96686	275.76593	-161.75380	711.02344	258.69965	-163.10600	666.84576	258.52164	-100.23764	706.56067	258.54556	-109.08631	662.01001	258.65231	-157.43182	536.99341	265.15585	-126.63577	527.55072	401.52524	-206.47054	441.46066	263.64987	-206.59441	398.37210	262.93143	-144.37119	434.41022	267.61929	-153.41164	391.79108	268.01340	-272.68048	116.64377	293.90601	-241.44519	116.49265	374.03818	-333.11826	77.44229	354.73932	-141.21590	59.68888	241.76685	-84.98780	72.06003	295.99231	-98.55353	56.42496	342.80304	-255.94855	1043.43872	477.84433	-26.13494	1028.46301	562.37390	-150.26044	733.18207	608.53497	-143.66333	691.20850	607.78552	-88.67519	736.82861	617.90002	-90.38611	689.37073	613.45752	-95.82597	551.21344	593.34857	-82.25606	543.05054	475.75058	-189.80836	348.84702	590.19061	-193.08516	301.57285	584.19159	-129.52376	338.89563	597.22400	-141.31651	292.83609	594.49817	-199.96509	106.72037	596.44092	-168.02908	110.25238	463.50232	-268.02487	62.68150	516.51801	-43.77899	52.63848	489.23001	-21.19644	74.09785	536.94891	-58.21100	48.78832	608.32184
750	6.24167	-257.21298	1050.97363	371.61249	-36.80181	1015.84277	275.77448	-161.71849	711.00873	258.72592	-163.02054	666.84894	258.53296	-100.66041	706.24762	258.59473	-109.02562	661.99646	258.65991	-157.40865	536.97266	265.15817	-126.58376	527.53308	401.51596	-206.40862	441.42136	263.62750	-206.54883	398.35983	262.93204	-144.30739	434.35825	267.61780	-153.36801	391.77664	268.01447	-272.69495	116.64343	293.90707	-241.42758	116.47995	374.04980	-333.10019	77.43096	354.73416	-141.17212	59.71264	241.74139	-84.97683	72.05014	295.97760	-98.51399	56.42421	342.79431	-255.80617	1043.41650	477.62601	-26.08405	1028.48633	562.37451	-150.14690	733.16821	608.49823	-143.48665	691.19470	607.74060	-88.55024	736.81696	617.87970	-90.26314	689.36261	613.43225	-95.65145	551.20764	593.34485	-82.04932	543.01178	475.77383	-189.69028	348.86688	590.16302	-192.94862	301.60504	584.18640	-129.39961	338.89188	597.21625	-141.20421	292.83771	594.49866	-199.89165	106.72471	596.43622	-167.99582	110.25171	463.48682	-267.99518	62.70564	516.47485	-43.78567	52.61971	489.23862	-21.16877	74.08866	536.94269	-58.18159	48.79071	608.32098
751	6.25000	-257.07639	1050.96118	371.47687	-36.62987	1015.74536	275.78714	-161.75253	710.92090	258.64877	-163.02391	666.85938	258.55685	-100.09822	706.54596	258.56851	-108.98554	661.98053	258.67853	-157.36339	536.95435	265.16074	-126.54002	527.50525	401.49765	-206.38380	441.40570	263.61871	-206.54250	398.34790	262.94818	-144.25758	434.33237	267.61362	-153.31587	391.75568	268.01828	-272.67786	116.62831	293.90665	-241.41815	116.47451	374.04642	-333.11469	77.42413	354.74963	-141.20078	59.70361	241.75984	-84.98612	72.04214	295.97775	-98.53854	56.37470	342.79800	-255.75510	1043.41565	477.45331	-26.12478	1028.49963	562.36761	-150.07878	733.17297	608.44452	-143.40060	691.17334	607.68994	-88.47791	736.81903	617.83710	-90.20274	689.37000	613.41418	-95.53449	551.19684	593.33759	-81.86264	542.97729	475.78204	-189.58591	348.89240	590.18292	-192.87257	301.61911	584.18890	-129.31473	338.88342	597.20789	-141.14867	292.82193	594.48834	-199.87537	106.72642	596.43274	-167.95413	110.25861	463.49445	-267.99915	62.72706	516.50128	-43.75887	52.60965	489.23694	-21.16234	74.04537	536.93500	-58.17864	48.76915	608.32196
752	6.25833	-256.90274	1050.94324	371.27240	-36.47279	1015.65314	275.77069	-161.65829	711.00891	258.76511	-162.97768	666.87701	258.55310	-100.08217	706.54669	258.55737	-108.96975	661.99054	258.66702	-157.35352	536.93219	265.13599	-126.51997	527.50861	401.47656	-206.41518	441.40359	263.64798	-206.52205	398.33325	262.91525	-144.25084	434.31241	267.60870	-153.30301	391.75476	267.99979	-272.70526	116.63094	293.90616	-241.42194	116.47387	374.04254	-333.12234	77.41694	354.77139	-141.20682	59.82593	241.57353	-84.98078	72.04842	295.98026	-98.53560	56.40665	342.81155	-255.72328	1043.44739	477.28363	-26.11971	1028.52417	562.33405	-150.04309	733.17841	608.39130	-143.31271	691.17389	607.63074	-88.37591	736.84644	617.81281	-90.11740	689.36218	613.39563	-95.40318	551.22931	593.34045	-81.70946	542.97888	475.77856	-189.53171	348.94583	590.15717	-192.81067	301.64157	584.18134	-129.26685	338.88910	597.20032	-141.07562	292.85327	594.47308	-199.89272	106.76286	596.41077	-167.93878	110.26567	463.48654	-267.96524	62.76735	516.47864	-43.76529	52.59901	489.23383	-21.17565	74.05329	536.93793	-58.20693	48.76195	608.33624
753	6.26667	-256.81152	1050.92236	371.09119	-36.36090	1015.54590	275.72864	-161.64427	711.02600	258.74725	-162.94836	666.87177	258.54681	-100.07396	706.54559	258.55249	-108.96317	662.00897	258.65338	-157.31584	536.93286	265.11646	-126.47668	527.49567	401.45560	-206.37027	441.39511	263.61252	-206.50967	398.33173	262.91333	-144.22346	434.31061	267.57373	-153.28160	391.74225	267.98480	-272.82739	116.58184	293.78302	-241.43262	116.48721	374.05063	-333.10687	77.42767	354.74554	-141.18669	59.84238	241.53882	-84.97733	72.06071	295.97687	-98.51743	56.43464	342.76971	-255.68188	1043.43945	477.12311	-26.07308	1028.56567	562.29034	-149.93108	733.14606	608.33002	-143.22151	691.16913	607.57916	-88.26546	736.85663	617.77869	-90.05187	689.38068	613.35358	-95.26662	551.24347	593.31653	-81.60886	542.97815	475.74994	-189.41255	348.98001	590.13354	-192.69060	301.65399	584.13928	-129.16394	338.89749	597.17279	-141.00162	292.85834	594.43811	-199.85239	106.78830	596.41455	-167.92268	110.27790	463.48483	-267.93329	62.79688	516.45001	-43.76625	52.58329	489.25787	-21.13477	74.06460	536.91956	-58.16574	48.78691	608.31464
754	6.27500	-256.63947	1050.88916	370.89917	-36.20755	1015.46899	275.66531	-161.67535	711.02246	258.75180	-163.01741	666.85516	258.56329	-100.09821	706.55194	258.53024	-108.97842	662.01300	258.63571	-157.29507	536.91199	265.09665	-126.46260	527.47467	401.44150	-206.32454	441.42642	263.57733	-206.48383	398.31317	262.89203	-144.16519	434.32593	267.55099	-153.26859	391.73328	267.96060	-272.80499	116.56498	293.77139	-241.42976	116.47944	374.03821	-333.13559	77.42393	354.74664	-141.18005	59.83960	241.55762	-84.98402	72.05917	295.98505	-98.53381	56.42115	342.79926	-255.68066	1043.45081	476.93430	-26.08142	1028.57251	562.24030	-149.85043	733.13159	608.25433	-143.16197	691.15765	607.51398	-88.20583	736.85455	617.75061	-89.97870	689.35968	613.31610	-95.17645	551.22461	593.30310	-81.49930	542.96606	475.73883	-189.36520	348.96866	590.12720	-192.63176	301.69864	584.12476	-129.10126	338.89224	597.16510	-140.95573	292.85010	594.42706	-199.83060	106.78442	596.41492	-167.89729	110.26887	463.48328	-267.97470	62.81512	516.45532	-43.76019	52.56640	489.24365	-21.12866	74.05447	536.92194	-58.15458	48.77443	608.31812
755	6.28333	-256.54443	1050.86975	370.75015	-36.04410	1015.42267	275.59952	-161.67905	710.99780	258.78131	-163.02773	666.84821	258.57056	-100.11014	706.57507	258.48236	-108.99310	662.02197	258.58969	-157.27832	536.90894	265.05859	-126.45284	527.46844	401.41571	-206.31909	441.41949	263.54901	-206.48605	398.31476	262.88370	-144.15463	434.30048	267.52701	-153.26503	391.71075	267.94122	-272.80399	116.55899	293.78421	-241.42444	116.47333	374.03305	-333.12949	77.40443	354.77524	-141.19814	59.80941	241.56813	-84.97582	72.03271	296.00009	-98.55775	56.37040	342.82562	-255.59058	1043.45801	476.78714	-26.07618	1028.51599	562.16632	-149.78371	733.08990	608.20306	-143.07858	691.10077	607.46625	-88.16895	736.82239	617.72809	-89.93531	689.33252	613.30646	-95.10054	551.18134	593.30902	-81.40182	542.96411	475.71051	-189.29962	348.93494	590.14313	-192.56799	301.66568	584.14838	-129.06844	338.84338	597.17352	-140.90625	292.82593	594.43536	-199.84244	106.74998	596.43567	-167.88138	110.27419	463.50153	-267.93918	62.79881	516.48022	-43.75148	52.52928	489.24356	-21.15598	73.97896	536.96716	-58.19664	48.74333	608.35114
756	6.29167	-256.46686	1050.86938	370.61996	-35.91936	1015.35754	275.52249	-161.72794	711.03491	258.74969	-162.55792	666.82507	259.16666	-100.13333	706.57953	258.43399	-109.00388	662.02612	258.54501	-157.24915	536.88525	265.01459	-126.40839	527.46863	401.37021	-206.33456	441.37067	263.52902	-206.44737	398.30576	262.82892	-144.16431	434.28308	267.49036	-153.22835	391.70282	267.89896	-272.80746	116.56464	293.79916	-241.42986	116.47260	374.05267	-333.12988	77.38273	354.79510	-141.20177	59.78371	241.58882	-84.99473	71.99995	296.00925	-98.58422	56.32925	342.85388	-255.58693	1043.46069	476.64880	-26.02577	1028.49133	562.08160	-149.69809	733.07678	608.17450	-142.99294	691.08612	607.43750	-88.10580	736.82092	617.71075	-89.90091	689.28577	613.28882	-95.03298	551.14240	593.29059	-81.30076	542.94513	475.68921	-189.20090	348.92841	590.14594	-192.49269	301.66415	584.15814	-129.02351	338.82571	597.18188	-140.85425	292.78693	594.43805	-199.82814	106.74380	596.43695	-167.84898	110.28932	463.48782	-267.90689	62.76403	516.51434	-43.77045	52.51303	489.25024	-21.16598	73.94791	537.01202	-58.18879	48.70057	608.38501
757	6.30000	-256.39267	1050.90320	370.48962	-35.80255	1015.32635	275.43668	-161.75705	711.02368	258.73032	-162.69073	666.86237	258.97171	-100.14524	706.58783	258.38763	-109.02892	662.02240	258.50272	-157.19348	536.86951	264.97458	-126.37380	527.49036	401.32718	-206.29117	441.37000	263.46591	-206.40958	398.31448	262.78668	-144.11803	434.27026	267.44748	-153.22675	391.69385	267.86221	-272.81900	116.54375	293.78909	-241.41370	116.48159	374.03476	-333.12250	77.41414	354.76547	-141.20192	59.79146	241.57919	-84.99342	72.01815	296.00430	-98.55515	56.35742	342.82117	-255.54604	1043.53247	476.52652	-25.99150	1028.47424	561.96008	-149.69302	733.08649	608.08716	-143.00847	691.12238	607.36505	-88.08427	736.83331	617.65137	-89.87990	689.35797	613.22595	-94.93580	551.19086	593.26007	-81.20541	542.92841	475.65353	-189.19171	348.97156	590.12109	-192.45277	301.70889	584.12329	-128.97644	338.85034	597.14783	-140.79962	292.81735	594.40350	-199.81239	106.79302	596.41168	-167.83594	110.28448	463.47827	-267.93546	62.83046	516.48547	-43.72759	52.52431	489.24902	-21.15588	73.94816	536.97815	-58.16470	48.72403	608.35217
758	6.30833	-256.31802	1050.90613	370.37576	-35.72411	1015.29901	275.35211	-161.75728	711.04022	258.70319	-162.80406	666.92767	258.86844	-100.18029	706.61609	258.30704	-109.02374	662.05023	258.43039	-157.16978	536.88104	264.93509	-126.35711	527.49487	401.27100	-206.25668	441.36307	263.41840	-206.40646	398.31262	262.75717	-144.07249	434.27148	267.37509	-153.21127	391.66815	267.82303	-272.67194	116.61391	293.89233	-241.39230	116.49575	374.02377	-333.11270	77.46726	354.71973	-141.18410	59.69356	241.71333	-84.95729	72.06622	295.94800	-98.51256	56.43901	342.75418	-255.52985	1043.58203	476.40417	-25.90804	1028.49756	561.79022	-149.67108	733.13788	607.97729	-142.96321	691.18823	607.24414	-88.05199	736.88336	617.58936	-89.81330	689.42279	613.13495	-94.85272	551.25275	593.22687	-81.09634	542.90497	475.63077	-189.14108	349.07047	590.05341	-192.41724	301.80164	584.05255	-128.88274	338.91895	597.10034	-140.70735	292.87756	594.33972	-199.79248	106.83401	596.38129	-167.81519	110.29108	463.48279	-267.91663	62.94983	516.42200	-43.73720	52.51170	489.24933	-21.09278	74.03784	536.89709	-58.13090	48.77632	608.29327
